<svg width="105" height="30" viewBox="0 0 105 30" fill="none" xmlns="http://www.w3.org/2000/svg">
<path d="M51.627 20.3061C50.0304 21.9092 47.8984 22.7061 45.7946 22.7061C40.4037 22.7061 37.5861 18.9374 37.5673 14.6249C37.5203 10.3499 40.3097 6.35614 45.7946 6.35614C47.8984 6.35614 50.021 7.15301 51.627 8.75614L50.7817 9.48739C49.4105 8.11864 47.6073 7.45301 45.7946 7.45301C41.1268 7.45301 38.7319 10.7436 38.7507 14.578C38.7976 18.3186 41.1738 21.5624 45.7946 21.5624C47.5979 21.5624 49.4293 20.878 50.8005 19.528L51.627 20.3061Z" fill="#131926"/>
<path d="M54.8018 13.9312H64.1749V15.0562H54.8018V21.3187H64.9075V22.5H53.5621V6.5437H65.1423V7.72495H54.8112V13.9312H54.8018Z" fill="#131926"/>
<path d="M77.4926 6.5437H78.8075V6.5812L73.3789 14.3249L79.2677 22.4999V22.5187H77.8025L72.637 15.2062L67.4714 22.5187H65.9969V22.4999L71.8762 14.3249L66.4477 6.5812V6.5437H67.7907L72.637 13.3687L77.4926 6.5437Z" fill="#131926"/>
<path d="M84.6776 22.5281V6.5437H85.8609V22.5093H84.6776V22.5281Z" fill="#00CCCC"/>
<path d="M104.25 14.5407C104.231 18.7407 101.555 22.7813 96.1824 22.7813C90.8103 22.7813 88.1148 18.7125 88.1148 14.4938C88.1148 10.2 90.7915 6.27191 96.1824 6.27191C101.573 6.27191 104.269 10.2282 104.25 14.5407ZM89.3264 14.5219C89.3451 18.1313 91.6368 21.6469 96.1824 21.6469C100.756 21.6469 103.067 18.1313 103.067 14.5219C103.067 10.8188 100.784 7.41566 96.1824 7.41566C91.5898 7.41566 89.2982 10.7532 89.3264 14.5219Z" fill="#00CCCC"/>
<path d="M80.2068 13.6593C80.6951 13.6593 81.0802 14.0531 81.0802 14.5312C81.0802 15.0187 80.6857 15.403 80.2068 15.403C79.7278 15.403 79.3333 15.0093 79.3333 14.5312C79.3333 14.0437 79.7184 13.6593 80.2068 13.6593Z" fill="#00CCCC"/>
<path fill-rule="evenodd" clip-rule="evenodd" d="M13.1487 14.9999C13.1487 16.0311 13.994 16.8749 15.0271 16.8749H26.2974L28.1758 14.9999L26.2974 13.1249H15.0271C13.994 13.1249 13.1487 13.9686 13.1487 14.9999Z" fill="#00CCCC"/>
<path fill-rule="evenodd" clip-rule="evenodd" d="M15.0269 6.56244C10.3592 6.56244 6.57422 10.3406 6.57422 14.9999C6.57422 19.6593 10.3592 23.4374 15.0269 23.4374H19.7229L23.4796 19.6874H15.0269C12.4348 19.6874 10.331 17.5874 10.331 14.9999C10.331 12.4124 12.4348 10.3124 15.0269 10.3124H23.4796L19.7229 6.56244H15.0269Z" fill="#00CCCC"/>
<path fill-rule="evenodd" clip-rule="evenodd" d="M15.0271 0C6.72461 0 0 6.7125 0 15C0 23.2875 6.72461 30 15.0271 30H30.0541V26.25H15.0271C8.80022 26.25 3.75676 21.2156 3.75676 15C3.75676 8.78437 8.80022 3.75 15.0271 3.75H30.0541V0H15.0271Z" fill="#00CCCC"/>
<path fill-rule="evenodd" clip-rule="evenodd" d="M27.2368 10.3124H30.0544V6.56244H23.48L27.2368 10.3124Z" fill="#00CCCC"/>
<path fill-rule="evenodd" clip-rule="evenodd" d="M23.48 23.4375H30.0544V19.6875H27.2368L23.48 23.4375Z" fill="#00CCCC"/>
</svg>  