<svg width="163" height="30" viewBox="0 0 163 30" fill="none" xmlns="http://www.w3.org/2000/svg">
<path d="M154.875 6.5625H148.875V8.0625H154.875V6.5625Z" fill="#00CCCC"/>
<path d="M162.375 6.5625H156.375V8.0625H162.375V6.5625Z" fill="#00CCCC"/>
<path d="M109.406 14.625H111.094L116.625 23.4375H114.75L109.406 14.625Z" fill="#00CCCC"/>
<path d="M106.5 6.5625H105V23.4375H106.5V6.5625Z" fill="#00CCCC"/>
<path d="M105 6.5625H110.719L111.656 8.0625H105V6.5625Z" fill="#00CCCC"/>
<path d="M111.656 14.625H105V16.125H111.656V14.625Z" fill="#00CCCC"/>
<path d="M110.719 8.0625C112.531 8.0625 114 9.53157 114 11.3438C114 13.1559 112.531 14.625 110.719 14.625V16.125C113.359 16.125 115.5 13.9844 115.5 11.3438C115.5 8.70314 113.359 6.5625 110.719 6.5625V8.0625Z" fill="#00CCCC"/>
<path d="M156.375 6.5625H154.875V23.4375H156.375V6.5625Z" fill="#00CCCC"/>
<path d="M147.044 21.2314L145.983 20.1707C144.62 21.5342 142.78 22.3125 140.813 22.3125C136.774 22.3125 133.5 19.0386 133.5 15C133.5 10.9614 136.774 7.6875 140.813 7.6875C142.78 7.6875 144.62 8.4658 145.983 9.82928L147.044 8.76862C145.449 7.17387 143.246 6.1875 140.813 6.1875C135.946 6.1875 132 10.133 132 15C132 19.867 135.946 23.8125 140.813 23.8125C143.246 23.8125 145.449 22.8261 147.044 21.2314ZM147.044 21.2314L145.983 20.1707C144.62 21.5342 142.78 22.3125 140.813 22.3125C136.774 22.3125 133.5 19.0386 133.5 15C133.5 10.9614 136.774 7.6875 140.813 7.6875C142.78 7.6875 144.62 8.4658 145.983 9.82928L147.044 8.76862C145.449 7.17387 143.246 6.1875 140.813 6.1875C135.946 6.1875 132 10.133 132 15C132 19.867 135.946 23.8125 140.813 23.8125C143.246 23.8125 145.449 22.8261 147.044 21.2314Z" fill="#00CCCC"/>
<path d="M121.125 6.5625H119.625V23.4375H121.125V6.5625Z" fill="#00CCCC"/>
<path d="M129.75 6.5625H119.625V8.0625H129.75V6.5625Z" fill="#00CCCC"/>
<path d="M128.063 13.875H119.625V15.375H128.063V13.875Z" fill="#00CCCC"/>
<path d="M130.125 21.9375H119.625V23.4375H130.125V21.9375Z" fill="#00CCCC"/>
<path d="M101.25 6.5625H99.7501V23.4375H101.25V6.5625Z" fill="#00CCCC"/>
<path fill-rule="evenodd" clip-rule="evenodd" d="M77.6251 14.625C77.6251 15.1428 78.0448 15.5626 78.5627 15.5626C79.0805 15.5626 79.5001 15.1428 79.5001 14.625C79.5001 14.1073 79.0805 13.6875 78.5627 13.6875C78.0448 13.6875 77.6251 14.1073 77.6251 14.625Z" fill="#00CCCC"/>
<path d="M52.5001 6.5625H51.0001V23.4375H52.5001V6.5625Z" fill="#131926"/>
<path d="M61.1251 6.5625H51.0001V8.0625H61.1251V6.5625Z" fill="#131926"/>
<path d="M59.4376 13.875H51.0001V15.375H59.4376V13.875Z" fill="#131926"/>
<path d="M61.5001 21.9375H51.0001V23.4375H61.5001V21.9375Z" fill="#131926"/>
<path d="M68.5314 14.625H70.2189L64.8751 23.4375H63.0001L68.5314 14.625Z" fill="#131926"/>
<path d="M68.5314 14.625H70.2189L75.7501 23.4375H73.8751L68.5314 14.625Z" fill="#131926"/>
<path d="M73.1251 6.5625H75.0001L70.2189 14.625H68.5314L73.1251 6.5625Z" fill="#131926"/>
<path d="M63.7501 6.5625H65.6251L70.2189 14.625H68.5314L63.7501 6.5625Z" fill="#131926"/>
<path d="M48.794 21.2314C47.1993 22.8261 44.9961 23.8125 42.5626 23.8125C37.6956 23.8125 33.7501 19.867 33.7501 15C33.7501 10.133 37.6956 6.1875 42.5626 6.1875C44.9961 6.1875 47.1993 7.17387 48.794 8.76862L47.7333 9.82928C46.3699 8.4658 44.5298 7.6875 42.5626 7.6875C38.524 7.6875 35.2501 10.9614 35.2501 15C35.2501 19.0386 38.524 22.3125 42.5626 22.3125C44.5298 22.3125 46.3699 21.5342 47.7333 20.1707L48.794 21.2314Z" fill="#131926"/>
<path d="M83.6251 6.5625H82.1251V23.4375H83.6251V6.5625Z" fill="#00CCCC"/>
<path d="M88.3126 6.5625H82.1251V8.0625H88.3126V6.5625Z" fill="#00CCCC"/>
<path d="M88.3126 21.9375H82.1251V23.4375H88.3126V21.9375Z" fill="#00CCCC"/>
<path d="M88.3126 6.5625C92.9725 6.5625 96.7501 10.3401 96.7501 15C96.7501 19.6599 92.9725 23.4375 88.3126 23.4375V21.9375C92.1441 21.9375 95.2501 18.8315 95.2501 15C95.2501 11.1685 92.1441 8.0625 88.3126 8.0625V6.5625Z" fill="#00CCCC"/>
<path fill-rule="evenodd" clip-rule="evenodd" d="M11.25 0C19.5342 0 26.25 6.71578 26.25 15C26.25 23.2842 19.5342 30 11.25 30H0V26.25H11.25C17.4632 26.25 22.5 21.2132 22.5 15C22.5 8.78681 17.4632 3.75 11.25 3.75H0V0H11.25Z" fill="#00CCCC"/>
<path fill-rule="evenodd" clip-rule="evenodd" d="M0 6.5625H3.75L11.25 15L3.75 23.4375H0V6.5625Z" fill="#00CCCC"/>
</svg>