<svg width="375" height="96" viewBox="0 0 375 96" fill="none" xmlns="http://www.w3.org/2000/svg">
<g clip-path="url(#clip0)">
<path d="M188 96C214.51 96 236 74.5097 236 48C236 21.4903 214.51 0 188 0C161.49 0 140 21.4903 140 48C140 74.5097 161.49 96 188 96Z" fill="#2769DC"/>
<path fill-rule="evenodd" clip-rule="evenodd" d="M221.823 13.9411C203.078 -4.80402 172.686 -4.80403 153.941 13.9411C135.196 32.6863 135.196 63.0782 153.941 81.8234L221.823 13.9411Z" fill="#318DE3"/>
<path d="M188 88C210.091 88 228 70.0914 228 48C228 25.9086 210.091 8 188 8C165.909 8 148 25.9086 148 48C148 70.0914 165.909 88 188 88ZM188 92C163.699 92 144 72.3005 144 48C144 23.6995 163.699 4 188 4C212.301 4 232 23.6995 232 48C232 72.3005 212.301 92 188 92Z" fill="#FAFBFC"/>
</g>
<rect x="168" y="19" width="41" height="57" rx="8" fill="#00CCCC"/>
<rect x="173" y="30" width="23" height="4" rx="2" fill="#FAFBFC"/>
<rect x="173" y="38" width="31" height="4" rx="2" fill="#FAFBFC"/>
<rect x="173" y="46" width="23" height="4" rx="2" fill="#FAFBFC"/>
<rect x="173" y="54" width="31" height="4" rx="2" fill="#FAFBFC"/>
<rect x="173" y="62" width="23" height="4" rx="2" fill="#FAFBFC"/>
<defs>
<clipPath id="clip0">
<rect width="96" height="96" fill="white" transform="translate(140)"/>
</clipPath>
</defs>
</svg>